<svg width="1500" height="500" viewBox="0 0 775 284" fill="none" xmlns="http://www.w3.org/2000/svg">
<path d="M114.781 191.583C112.933 203.469 121.186 213.105 133.216 213.105H144.165C156.172 213.105 167.401 203.507 169.283 191.652L184.231 95.5564H209.884L194.947 191.583C193.098 203.469 201.352 213.105 213.381 213.105H224.331C236.36 213.105 247.611 203.469 249.46 191.583L252.808 170.059H236.574C234.723 170.059 233.453 168.577 233.738 166.748L236.571 148.537C236.855 146.708 238.586 145.225 240.437 145.225H256.671L264.398 95.5564H290.05L274.339 196.55C270.926 218.495 250.154 236.285 227.946 236.285H202.553C191.971 236.285 182.974 232.245 176.822 225.642C168.615 232.244 158.362 236.285 147.78 236.285H122.388C100.179 236.285 84.9422 218.495 88.3559 196.55L104.066 95.5564H129.719L114.781 191.583Z" fill="#FF15FB"/>
<path d="M144.278 93.9C146.127 82.0131 137.874 72.3765 125.844 72.3765L114.894 72.3765C102.865 72.3768 91.614 82.0133 89.7648 93.9L74.8272 189.927L49.1752 189.927L64.8854 88.9331C68.2991 66.988 89.0703 49.1975 111.279 49.1973L136.672 49.1973C158.881 49.1973 174.117 66.9879 170.704 88.9331L154.993 189.927L129.341 189.927L144.278 93.9Z" fill="#FF15FB"/>
<path d="M381.432 107.53C395.899 107.53 407.627 119.258 407.627 133.725V192.335C407.627 193.239 406.893 193.973 405.989 193.973H396.168C395.263 193.973 394.53 193.239 394.53 192.335V136.345C394.53 126.941 386.906 119.318 377.503 119.318H369.645C360.241 119.318 352.618 126.941 352.618 136.345V192.335C352.618 193.239 351.884 193.973 350.98 193.973H341.159C340.254 193.973 339.521 193.239 339.521 192.335V133.725C339.521 119.258 351.248 107.53 365.715 107.53H381.432Z" fill="white"/>
<path d="M446.919 193.918C432.453 193.918 420.725 182.19 420.725 167.724V111.734C420.725 110.829 421.458 110.095 422.363 110.095H432.184C433.089 110.095 433.822 110.829 433.822 111.734V165.461C433.822 174.865 441.445 182.488 450.849 182.488H458.707C468.111 182.488 475.734 174.865 475.734 165.461V111.734C475.734 110.829 476.467 110.095 477.372 110.095H487.193C488.098 110.095 488.831 110.829 488.831 111.734V167.724C488.831 182.191 477.103 193.918 462.637 193.918H446.919Z" fill="white"/>
<path d="M664.336 107.394C678.803 107.394 690.53 119.122 690.531 133.588V192.199C690.531 193.103 689.797 193.837 688.892 193.837H679.072C678.167 193.837 677.433 193.103 677.433 192.199V136.209C677.433 126.805 669.81 119.182 660.406 119.182H652.549C643.145 119.182 635.522 126.805 635.522 136.209V149.437H647.796C649.243 149.437 650.415 150.61 650.415 152.056V159.915C650.415 161.362 649.243 162.534 647.796 162.534H635.522V192.199C635.522 193.103 634.788 193.837 633.884 193.837H624.063C623.158 193.837 622.424 193.103 622.424 192.199V133.588C622.424 119.122 634.152 107.394 648.619 107.394H664.336Z" fill="white"/>
<path d="M515.024 165.38C515.024 174.783 522.648 182.407 532.051 182.407C541.434 182.406 549.044 174.817 549.077 165.442V111.652C549.077 110.747 549.811 110.014 550.715 110.014H560.537C561.442 110.014 562.175 110.747 562.175 111.652V165.38C562.175 174.783 569.798 182.406 579.201 182.407C588.605 182.407 596.228 174.783 596.228 165.38V111.652C596.228 110.747 596.962 110.014 597.866 110.014H607.687C608.592 110.014 609.325 110.747 609.325 111.652V167.642C609.325 182.109 597.598 193.837 583.131 193.837H575.273C567.448 193.837 560.426 190.405 555.626 184.966C550.826 190.405 543.805 193.837 535.981 193.837H528.122C513.656 193.837 501.927 182.109 501.927 167.642V111.652C501.927 110.747 502.661 110.014 503.565 110.014H513.386C514.291 110.014 515.024 110.747 515.024 111.652V165.38Z" fill="white"/>
<path d="M724.583 109.847C724.583 101.167 717.547 94.1299 708.867 94.1298C700.187 94.1298 693.15 101.167 693.15 109.847C693.15 118.527 700.187 125.563 708.867 125.563V128.183L708.393 128.177C698.642 127.93 690.783 120.071 690.536 110.32L690.53 109.847C690.53 99.7199 698.74 91.5103 708.867 91.5103L709.34 91.5159C719.248 91.7668 727.202 99.8781 727.202 109.847L727.197 110.32C726.946 120.228 718.835 128.182 708.867 128.183V125.563C717.547 125.563 724.583 118.527 724.583 109.847Z" fill="white"/>
<path d="M717.123 102.643C717.586 102.643 717.961 103.018 717.961 103.481V116.212C717.961 116.675 717.586 117.05 717.123 117.05H715.289C714.826 117.05 714.451 116.675 714.451 116.212V103.481C714.451 103.018 714.826 102.643 715.289 102.643H717.123Z" fill="white"/>
<path d="M708.963 116.497C708.56 115.306 707.443 114.505 706.186 114.505H705.014C703.757 114.505 702.64 115.306 702.237 116.497C702.125 116.828 701.815 117.05 701.465 117.05H699.87C699.143 117.05 698.637 116.329 698.884 115.646L703.389 103.196C703.509 102.864 703.824 102.643 704.177 102.643H707.065C707.417 102.643 707.732 102.864 707.852 103.196L712.357 115.646C712.604 116.329 712.098 117.05 711.372 117.05H709.735C709.386 117.05 709.075 116.828 708.963 116.497ZM707.386 111.796L705.6 106.522L703.835 111.796H707.386Z" fill="white"/>
</svg>
