<svg width="775" height="283" viewBox="0 0 775 283" fill="none" xmlns="http://www.w3.org/2000/svg">
<path d="M114.781 191.247C112.932 203.134 121.186 212.769 133.216 212.769H144.165C156.171 212.769 167.401 203.171 169.283 191.316L184.231 95.2205H209.884L194.947 191.247C193.098 203.133 201.351 212.769 213.381 212.769H224.33C236.36 212.769 247.611 203.133 249.46 191.247L252.808 169.723H236.573C234.723 169.723 233.453 168.241 233.737 166.412L236.57 148.201C236.855 146.372 238.586 144.889 240.437 144.889H256.671L264.397 95.2205H290.049L274.339 196.214C270.926 218.159 250.154 235.949 227.945 235.949H202.553C191.971 235.949 182.974 231.909 176.821 225.306C168.615 231.909 158.361 235.949 147.78 235.949H122.387C100.178 235.949 84.942 218.159 88.3557 196.214L104.066 95.2205H129.719L114.781 191.247Z" fill="#FF15FB"/>
<path d="M144.278 93.5641C146.127 81.6772 137.874 72.0406 125.844 72.0406L114.894 72.0406C102.865 72.0408 91.6139 81.6774 89.7648 93.5641L74.8272 189.591L49.1752 189.591L64.8854 88.5971C68.2991 66.6521 89.0703 48.8616 111.279 48.8614L136.672 48.8614C158.881 48.8614 174.117 66.652 170.704 88.5971L154.993 189.591L129.34 189.591L144.278 93.5641Z" fill="#FF15FB"/>
<path d="M381.432 107.194C395.899 107.194 407.627 118.922 407.627 133.389V191.999C407.627 192.903 406.893 193.637 405.989 193.637H396.168C395.263 193.637 394.53 192.904 394.53 191.999V136.009C394.53 126.605 386.906 118.982 377.503 118.982H369.645C360.241 118.982 352.618 126.605 352.618 136.009V191.999C352.618 192.904 351.884 193.637 350.979 193.637H341.159C340.254 193.637 339.521 192.903 339.521 191.999V133.389C339.521 118.922 351.248 107.194 365.715 107.194H381.432Z" fill="black"/>
<path d="M446.919 193.582C432.452 193.582 420.725 181.855 420.725 167.388V111.398C420.725 110.493 421.458 109.76 422.363 109.76H432.184C433.088 109.76 433.822 110.493 433.822 111.398V165.125C433.822 174.529 441.445 182.152 450.849 182.152H458.707C468.11 182.152 475.734 174.529 475.734 165.125V111.398C475.734 110.493 476.467 109.76 477.372 109.76H487.193C488.097 109.76 488.831 110.493 488.831 111.398V167.388C488.831 181.855 477.103 193.582 462.636 193.582H446.919Z" fill="black"/>
<path d="M664.336 107.058C678.803 107.058 690.53 118.786 690.531 133.252V191.863C690.53 192.767 689.797 193.501 688.892 193.501H679.072C678.167 193.501 677.433 192.767 677.433 191.863V135.873C677.433 126.469 669.81 118.846 660.406 118.846H652.548C643.145 118.846 635.522 126.469 635.522 135.873V149.101H647.796C649.242 149.101 650.415 150.274 650.415 151.72V159.579C650.415 161.026 649.243 162.198 647.796 162.198H635.522V191.863C635.522 192.767 634.788 193.501 633.883 193.501H624.062C623.158 193.501 622.424 192.767 622.424 191.863V133.252C622.424 118.786 634.152 107.058 648.619 107.058H664.336Z" fill="black"/>
<path d="M515.024 165.044C515.024 174.447 522.648 182.071 532.051 182.071C541.434 182.071 549.044 174.481 549.077 165.106V111.316C549.077 110.411 549.811 109.678 550.715 109.678H560.537C561.442 109.678 562.175 110.411 562.175 111.316V165.044C562.175 174.447 569.798 182.071 579.201 182.071C588.605 182.071 596.228 174.447 596.228 165.044V111.316C596.228 110.411 596.961 109.678 597.866 109.678H607.687C608.592 109.678 609.325 110.411 609.325 111.316V167.306C609.325 181.773 597.597 193.501 583.131 193.501H575.272C567.448 193.501 560.426 190.069 555.626 184.63C550.826 190.069 543.805 193.501 535.981 193.501H528.122C513.655 193.501 501.927 181.773 501.927 167.306V111.316C501.927 110.411 502.661 109.678 503.565 109.678H513.386C514.291 109.678 515.024 110.411 515.024 111.316V165.044Z" fill="black"/>
<path d="M724.583 109.511C724.583 100.831 717.547 93.7939 708.867 93.7938C700.186 93.7938 693.15 100.831 693.15 109.511C693.15 118.191 700.187 125.227 708.867 125.227V127.847L708.393 127.841C698.642 127.594 690.783 119.735 690.536 109.984L690.53 109.511C690.53 99.384 698.74 91.1743 708.867 91.1743L709.34 91.18C719.248 91.4309 727.202 99.5421 727.202 109.511L727.197 109.984C726.946 119.892 718.835 127.847 708.867 127.847V125.227C717.547 125.227 724.583 118.191 724.583 109.511Z" fill="black"/>
<path d="M717.123 102.307C717.586 102.307 717.961 102.682 717.961 103.145V115.876C717.961 116.339 717.586 116.714 717.123 116.714H715.289C714.826 116.714 714.451 116.339 714.451 115.876V103.145C714.451 102.682 714.826 102.307 715.289 102.307H717.123Z" fill="black"/>
<path d="M708.963 116.161C708.56 114.97 707.443 114.169 706.186 114.169H705.014C703.757 114.169 702.64 114.97 702.237 116.161V116.161C702.125 116.492 701.815 116.714 701.465 116.714H699.87C699.143 116.714 698.637 115.993 698.884 115.31L703.389 102.86C703.509 102.528 703.824 102.307 704.177 102.307H707.065C707.417 102.307 707.732 102.528 707.852 102.86L712.357 115.31C712.604 115.993 712.098 116.714 711.372 116.714H709.735C709.386 116.714 709.075 116.492 708.963 116.161V116.161ZM707.386 111.46L705.6 106.186L703.835 111.46H707.386Z" fill="black"/>
</svg>
